<svg width="235" height="219" viewBox="0 0 235 219" fill="none" xmlns="http://www.w3.org/2000/svg">
<path d="M166 131.225C166 134.664 164.063 137.65 161.112 139.189L88.2567 179.371C86.7811 180.457 84.9367 181 83 181C81.0634 181 79.2189 180.457 77.7434 179.371L4.88781 139.189C3.4093 138.427 2.17198 137.281 1.31027 135.877C0.448551 134.473 -0.00460346 132.864 3.52588e-05 131.225V49.775C3.52588e-05 46.336 1.9367 43.3495 4.88781 41.811L77.7434 1.629C79.2189 0.543001 81.0634 0 83 0C84.9367 0 86.7811 0.543001 88.2567 1.629L161.112 41.811C164.063 43.3495 166 46.336 166 49.775V131.225Z" fill="#7B2CBF"/>
<path d="M166 131.225C166 134.664 164.063 137.65 161.112 139.189L88.2567 179.371C86.7811 180.457 84.9367 181 83 181C81.0634 181 79.2189 180.457 77.7434 179.371L4.88781 139.189C3.4093 138.427 2.17198 137.281 1.31027 135.877C0.448551 134.473 -0.00460346 132.864 3.52588e-05 131.225V49.775C3.52588e-05 46.336 1.9367 43.3495 4.88781 41.811L77.7434 1.629C79.2189 0.543001 81.0634 0 83 0C84.9367 0 86.7811 0.543001 88.2567 1.629L161.112 41.811C164.063 43.3495 166 46.336 166 49.775V131.225Z" fill="url(#paint0_linear)"/>
<g style="mix-blend-mode:multiply">
<g style="mix-blend-mode:multiply">
<path fill-rule="evenodd" clip-rule="evenodd" d="M168.302 213.772C167.362 215.361 166.006 216.681 164.372 217.599C162.738 218.517 160.883 219 158.995 219C157.106 219 155.251 218.517 153.617 217.599C151.983 216.681 150.627 215.361 149.687 213.772L84.5629 106.28C80.2226 99.112 85.4367 90 93.8705 90H224.128C232.571 90 237.776 99.1212 233.436 106.28L168.302 213.772Z" fill="#7B2CBF"/>
</g>
</g>
<defs>
<linearGradient id="paint0_linear" x1="83" y1="0" x2="83" y2="181" gradientUnits="userSpaceOnUse">
<stop stop-color="#10002B"/>
<stop offset="1" stop-color="#3C096C" stop-opacity="0"/>
</linearGradient>
</defs>
</svg>
