<svg width="145" height="148" viewBox="0 0 145 148" fill="none" xmlns="http://www.w3.org/2000/svg">
<path d="M4.5254 43.568C6.7737 46.081 8.0985 49.285 8.2809 52.652L8.2809 94.6395C8.099 98.0069 6.7742 101.211 4.5254 103.724L1.5553 106.695C0.559302 107.693 0 109.046 0 110.456C0 111.867 0.559302 113.219 1.5553 114.218L33.0594 145.737C34.0584 146.733 35.4109 147.292 36.8209 147.292C38.2309 147.292 39.5834 146.733 40.5824 145.737L52.5744 133.741C53.5658 132.74 54.122 131.388 54.122 129.98C54.122 128.571 53.5658 127.219 52.5744 126.218L30.0894 103.725C27.8366 101.215 26.51 98.009 26.3299 94.6404L26.3299 52.653C26.5095 49.286 27.8363 46.083 30.0894 43.575L52.5744 21.073C53.5658 20.072 54.122 18.72 54.122 17.312C54.122 15.903 53.5658 14.551 52.5744 13.55L40.5824 1.55399C39.5833 0.558986 38.2308 0 36.8209 0C35.411 0 34.0585 0.558986 33.0594 1.55399L1.5553 33.076C0.559402 34.075 0.000102997 35.427 0.000102997 36.837C0.000102997 38.248 0.559402 39.6 1.5553 40.598L4.5254 43.568Z" fill="#ABC4FF"/>
<path d="M139.61 103.729C137.356 101.214 136.027 98.0045 135.844 94.6315V52.66C136.028 49.289 137.357 46.082 139.61 43.57L142.581 40.592C143.574 39.592 144.131 38.24 144.131 36.83C144.131 35.421 143.574 34.069 142.581 33.069L111.068 1.55299C110.069 0.557994 108.716 0 107.307 0C105.897 0 104.545 0.557994 103.546 1.55299L91.554 13.556C90.559 14.555 90 15.908 90 17.318C90 18.728 90.559 20.081 91.554 21.08L114.034 43.574C116.288 46.086 117.618 49.293 117.802 52.664L117.796 94.6355C117.615 98.0083 116.288 101.218 114.034 103.733L91.554 126.226C90.559 127.223 90 128.575 90 129.984C90 131.393 90.559 132.744 91.554 133.741L103.546 145.745C104.04 146.239 104.626 146.631 105.271 146.898C105.917 147.165 106.608 147.303 107.307 147.303C108.005 147.303 108.697 147.165 109.342 146.898C109.988 146.631 110.574 146.239 111.068 145.745L142.581 114.23C143.574 113.23 144.131 111.877 144.131 110.468C144.131 109.058 143.574 107.706 142.581 106.706L139.61 103.729Z" fill="#ABC4FF"/>
<path fill-rule="evenodd" clip-rule="evenodd" d="M53.7571 50.0001C53.5892 49.9992 53.4217 50.0133 53.2577 50.0423C49.8018 50.2537 47.0286 52.577 47.0286 55.4001C47.0286 58.2273 49.8087 60.5552 53.2709 60.7613C53.4307 60.7884 53.5938 60.8013 53.7571 60.8H58.2429C59.5242 60.8 60.4857 61.5718 60.4857 62.5999C60.4857 63.6284 59.5242 64.3999 58.2429 64.3999H49.2714C48.9745 64.3969 48.6798 64.4412 48.4044 64.5303C48.129 64.6194 47.8783 64.7515 47.667 64.919C47.4557 65.0864 47.288 65.2859 47.1735 65.5058C47.059 65.7256 47 65.9616 47 66.1999C47 66.4382 47.059 66.6741 47.1735 66.894C47.288 67.1139 47.4557 67.3133 47.667 67.4808C47.8783 67.6482 48.129 67.7803 48.4044 67.8694C48.6798 67.9585 48.9745 68.0029 49.2714 67.9999H58.2429C58.4108 68.0008 58.5783 67.9867 58.7422 67.9577C62.1982 67.7463 64.9715 65.4234 64.9714 62.5999C64.9714 59.773 62.1913 57.4449 58.7291 57.2387C58.5693 57.2116 58.4062 57.1987 58.2429 57.2H53.7571C52.4758 57.2 51.5143 56.4286 51.5143 55.4001C51.5143 54.3721 52.4758 53.6001 53.7571 53.6001H62.7286C63.0255 53.6031 63.3202 53.5588 63.5956 53.4697C63.871 53.3806 64.1217 53.2485 64.333 53.081C64.5443 52.9136 64.712 52.7141 64.8265 52.4942C64.941 52.2744 65 52.0384 65 51.8001C65 51.5618 64.941 51.3259 64.8265 51.106C64.712 50.8861 64.5443 50.6867 64.333 50.5192C64.1217 50.3518 63.871 50.2197 63.5956 50.1306C63.3202 50.0415 63.0255 49.9971 62.7286 50.0001H53.7571Z" fill="black"/>
<path fill-rule="evenodd" clip-rule="evenodd" d="M83.2149 50.0002C82.6198 50.0077 82.0526 50.2032 81.6375 50.544C81.2224 50.8849 80.9932 51.3433 81.0002 51.8189V62.3469C81.0002 65.4508 84.1992 68 88.084 68H91.9159C95.8007 68 98.9998 65.4508 98.9998 62.3469C98.9996 60.2124 98.9996 54.9005 98.9998 51.8261C99.004 51.5879 98.9489 51.3514 98.8377 51.1303C98.7265 50.9092 98.5615 50.708 98.3521 50.5383C98.1428 50.3687 97.8933 50.2339 97.6183 50.1419C97.3432 50.05 97.048 50.0026 96.7498 50.0026C96.4517 50.0026 96.1565 50.05 95.8814 50.1419C95.6063 50.2339 95.3569 50.3687 95.1475 50.5383C94.9382 50.708 94.7731 50.9092 94.6619 51.1303C94.5507 51.3514 94.4957 51.5879 94.4999 51.8261C94.4997 54.9009 94.4997 60.2191 94.4999 62.3539C94.4999 63.5279 93.3852 64.4114 91.9159 64.4114H88.084C86.6147 64.4114 85.5001 63.5208 85.5001 62.3469V51.8189C85.5035 51.5787 85.4468 51.3404 85.333 51.118C85.2193 50.8956 85.051 50.6936 84.838 50.524C84.625 50.3545 84.3716 50.2209 84.0928 50.131C83.8141 50.041 83.5156 49.9965 83.2149 50.0002V50.0002Z" fill="black"/>
<mask id="mask0" mask-type="alpha" maskUnits="userSpaceOnUse" x="54" y="83" width="39" height="10">
<path d="M54.6445 92V83.4688H57.709C58.8066 83.4688 59.6406 83.6699 60.2109 84.0723C60.7852 84.4746 61.0723 85.0586 61.0723 85.8242C61.0723 86.2656 60.9707 86.6426 60.7676 86.9551C60.5645 87.2676 60.2656 87.498 59.8711 87.6465C60.3164 87.7637 60.6582 87.9824 60.8965 88.3027C61.1348 88.623 61.2539 89.0137 61.2539 89.4746C61.2539 90.3105 60.9883 90.9395 60.457 91.3613C59.9297 91.7793 59.1465 91.9922 58.1074 92H54.6445ZM56.7012 88.373V90.418H58.0488C58.4199 90.418 58.7051 90.334 58.9043 90.166C59.1035 89.9941 59.2031 89.7539 59.2031 89.4453C59.2031 88.7344 58.8496 88.377 58.1426 88.373H56.7012ZM56.7012 87.0254H57.7734C58.2227 87.0215 58.543 86.9395 58.7344 86.7793C58.9258 86.6191 59.0215 86.3828 59.0215 86.0703C59.0215 85.7109 58.918 85.4531 58.7109 85.2969C58.5039 85.1367 58.1699 85.0566 57.709 85.0566H56.7012V87.0254ZM72.6035 87.9102C72.6035 88.7422 72.4492 89.4785 72.1406 90.1191C71.832 90.7598 71.3926 91.2539 70.8223 91.6016C70.2559 91.9453 69.6094 92.1172 68.8828 92.1172C68.1562 92.1172 67.5117 91.9512 66.9492 91.6191C66.3867 91.2832 65.9473 90.8047 65.6309 90.1836C65.3184 89.5625 65.1543 88.8496 65.1387 88.0449V87.5645C65.1387 86.7285 65.291 85.9922 65.5957 85.3555C65.9043 84.7148 66.3438 84.2207 66.9141 83.873C67.4883 83.5254 68.1406 83.3516 68.8711 83.3516C69.5938 83.3516 70.2383 83.5234 70.8047 83.8672C71.3711 84.2109 71.8105 84.7012 72.123 85.3379C72.4395 85.9707 72.5996 86.6973 72.6035 87.5176V87.9102ZM70.5117 87.5527C70.5117 86.7051 70.3691 86.0625 70.084 85.625C69.8027 85.1836 69.3984 84.9629 68.8711 84.9629C67.8398 84.9629 67.2949 85.7363 67.2363 87.2832L67.2305 87.9102C67.2305 88.7461 67.3691 89.3887 67.6465 89.8379C67.9238 90.2871 68.3359 90.5117 68.8828 90.5117C69.4023 90.5117 69.8027 90.291 70.084 89.8496C70.3652 89.4082 70.5078 88.7734 70.5117 87.9453V87.5527ZM82.998 85.0566H80.4375V92H78.3809V85.0566H75.8672V83.4688H82.998V85.0566ZM90.9082 89.7324C90.9082 89.4316 90.8008 89.1973 90.5859 89.0293C90.375 88.8613 90.002 88.6875 89.4668 88.5078C88.9316 88.3281 88.4941 88.1543 88.1543 87.9863C87.0488 87.4434 86.4961 86.6973 86.4961 85.748C86.4961 85.2754 86.6328 84.8594 86.9062 84.5C87.1836 84.1367 87.5742 83.8555 88.0781 83.6562C88.582 83.4531 89.1484 83.3516 89.7773 83.3516C90.3906 83.3516 90.9395 83.4609 91.4238 83.6797C91.9121 83.8984 92.291 84.2109 92.5605 84.6172C92.8301 85.0195 92.9648 85.4805 92.9648 86H90.9141C90.9141 85.6523 90.8066 85.3828 90.5918 85.1914C90.3809 85 90.0938 84.9043 89.7305 84.9043C89.3633 84.9043 89.0723 84.9863 88.8574 85.1504C88.6465 85.3105 88.541 85.5156 88.541 85.7656C88.541 85.9844 88.6582 86.1836 88.8926 86.3633C89.127 86.5391 89.5391 86.7227 90.1289 86.9141C90.7188 87.1016 91.2031 87.3047 91.582 87.5234C92.5039 88.0547 92.9648 88.7871 92.9648 89.7207C92.9648 90.4668 92.6836 91.0527 92.1211 91.4785C91.5586 91.9043 90.7871 92.1172 89.8066 92.1172C89.1152 92.1172 88.4883 91.9941 87.9258 91.748C87.3672 91.498 86.9453 91.1582 86.6602 90.7285C86.3789 90.2949 86.2383 89.7969 86.2383 89.2344H88.3008C88.3008 89.6914 88.418 90.0293 88.6523 90.248C88.8906 90.4629 89.2754 90.5703 89.8066 90.5703C90.1465 90.5703 90.4141 90.498 90.6094 90.3535C90.8086 90.2051 90.9082 89.998 90.9082 89.7324Z" fill="black"/>
</mask>
<g mask="url(#mask0)">
<rect x="17" y="24" width="100" height="100" fill="#C4C4C4"/>
</g>
</svg>
